<svg viewBox="0 0 24 24"
    version="1.1"
    xmlns="http://www.w3.org/2000/svg"
    xmlns:xlink="http://www.w3.org/1999/xlink"
    xml:space="preserve"
    xmlns:serif="http://www.serif.com/"
    style="fill-rule:evenodd;clip-rule:evenodd;stroke-linejoin:round;stroke-miterlimit:2;">
    <g id="Icon">
        <path d="M2.317,11.663l-0,1.647l-0.786,0.262l-0.281,-0.842c0,0 0.541,-0.541 1.067,-1.067Zm6.837,-3.374l-0.507,3.042c-0.041,0.249 0.085,0.495 0.31,0.608l4.599,2.3c0.221,0.11 0.488,0.067 0.663,-0.108l1.318,-1.318l0,6.085c0,-0 -2.646,-0 -2.646,-0l-8.959,-8.433c-0.001,-0 3.548,-1.478 5.222,-2.176Zm-1.272,7.473c-0.006,0.011 -0.012,0.023 -0.017,0.035l-1.329,3.101c0,-0 -3.07,-0 -3.07,-0c0,-0 0,-5.178 0,-5.187l0,-2.105l4.416,4.156Zm2.865,-10.038l5.127,5.126l-2.175,2.175c0,0 -3.848,-1.924 -3.848,-1.924c0,-0 0.588,-3.528 0.896,-5.377Zm9.92,3.067l0.872,-1.308l1.211,0.302l-1.396,2.792l-0.687,-1.786Zm-8.915,-3.689l6.265,0c-0,0 2.335,6.072 2.335,6.072l-3.371,-0.843l-5.229,-5.229Z" />
    </g>
</svg>